<svg width="780" height="1023" viewBox="0 0 780 1023" fill="none" xmlns="http://www.w3.org/2000/svg">
<path d="M377.213 90.6988C377.213 90.6988 417.687 74.0899 432.568 29.2788" stroke="url(#paint0_linear_8_212)" stroke-width="3" stroke-miterlimit="10"/>
<path d="M377.213 131.44L393.886 111.378" stroke="url(#paint1_linear_8_212)" stroke-width="3" stroke-miterlimit="10"/>
<path d="M352.411 131.111L336.53 111.378" stroke="url(#paint2_linear_8_212)" stroke-width="3" stroke-miterlimit="10"/>
<path d="M352.411 91.9734C352.411 91.9734 310.02 68.6634 296.098 27.9634" stroke="url(#paint3_linear_8_212)" stroke-width="3" stroke-miterlimit="10"/>
<path d="M324.484 120.792L319.857 100.278C319.857 100.278 300.182 112.652 273.088 90.6989C245.994 68.7456 284.885 66.5256 284.885 66.5256C284.885 66.5256 285.593 55.0555 279.341 38.6111" stroke="url(#paint4_linear_8_212)" stroke-width="3" stroke-miterlimit="10"/>
<path d="M218.234 64.6343L232.115 87.2454C255.04 80.3798 250.164 76.2688 253.665 100.278C257.125 124.245 232.115 136.209 232.115 136.209L238.992 154.914" stroke="url(#paint5_linear_8_212)" stroke-width="3" stroke-miterlimit="10"/>
<path d="M195.725 70.801C195.725 70.801 217.066 98.6333 202.811 147.843" stroke="url(#paint6_linear_8_212)" stroke-width="3" stroke-miterlimit="10"/>
<path d="M99.7705 165.686C99.7705 165.686 142.746 189.982 185.012 168.111" stroke="url(#paint7_linear_8_212)" stroke-width="3" stroke-miterlimit="10"/>
<path d="M228.739 183.857L224.57 152.283" stroke="url(#paint8_linear_8_212)" stroke-width="3" stroke-miterlimit="10"/>
<path d="M188.598 197.053L212.732 200.301" stroke="url(#paint9_linear_8_212)" stroke-width="3" stroke-miterlimit="10"/>
<path d="M187.556 211.401C187.556 211.401 168.923 187.269 158.503 208.523C148.082 229.778 119.654 220.898 119.654 220.898C119.654 220.898 134.201 190.023 95.2695 185.213" stroke="url(#paint10_linear_8_212)" stroke-width="3" stroke-miterlimit="10"/>
<path d="M155.168 292.102L130.7 288.731C130.7 288.731 137.661 263.366 123.072 244.167C108.483 224.968 102.231 244.167 102.231 244.167C102.231 244.167 93.894 257.199 70.2598 245.523" stroke="url(#paint11_linear_8_212)" stroke-width="3" stroke-miterlimit="10"/>
<path d="M165.422 319.893L144.872 301.928" stroke="url(#paint12_linear_8_212)" stroke-width="3" stroke-miterlimit="10"/>
<path d="M119.612 339.585C119.612 339.585 110.858 381.807 59.6299 401.047" stroke="url(#paint13_linear_8_212)" stroke-width="3" stroke-miterlimit="10"/>
<path d="M188.806 449.64L168.215 459.26C168.215 459.26 159.878 436.526 127.24 437.636C94.6026 438.746 116.82 459.26 116.82 459.26C116.82 459.26 134.868 467.523 95.2695 477.143" stroke="url(#paint14_linear_8_212)" stroke-width="3" stroke-miterlimit="10"/>
<path d="M185.679 492.807C185.679 492.807 149.415 472.827 99.7705 492.807" stroke="url(#paint15_linear_8_212)" stroke-width="3" stroke-miterlimit="10"/>
<path d="M197.101 507.606C197.101 507.606 221.152 537.494 197.101 593.652" stroke="url(#paint16_linear_8_212)" stroke-width="3" stroke-miterlimit="10"/>
<path d="M189.807 465.139L221.777 462.22" stroke="url(#paint17_linear_8_212)" stroke-width="3" stroke-miterlimit="10"/>
<path d="M240.451 503.742L230.739 521.214C230.739 521.214 261.293 542.88 252.956 564.134C244.62 585.389 230.739 568.944 230.739 568.944C230.739 568.944 221.027 571 215.441 597.722" stroke="url(#paint18_linear_8_212)" stroke-width="3" stroke-miterlimit="10"/>
<path d="M227.195 504.441V467.482" stroke="url(#paint19_linear_8_212)" stroke-width="3" stroke-miterlimit="10"/>
<path d="M293.139 630.447C293.139 630.447 305.227 585.389 354.496 568.944" stroke="url(#paint20_linear_8_212)" stroke-width="3" stroke-miterlimit="10"/>
<path d="M324.776 537.083L323.776 557.31C323.776 557.31 280.717 553.199 270.297 574.453C259.876 595.708 284.177 591.597 284.177 591.597C284.177 591.597 302.226 597.065 278.633 621.731" stroke="url(#paint21_linear_8_212)" stroke-width="3" stroke-miterlimit="10"/>
<path d="M434.068 630.447C434.068 630.447 416.853 584.69 375.212 568.944" stroke="url(#paint22_linear_8_212)" stroke-width="3" stroke-miterlimit="10"/>
<path d="M351.953 521.214C351.953 521.214 346.284 548.183 336.113 545.881" stroke="url(#paint23_linear_8_212)" stroke-width="3" stroke-miterlimit="10"/>
<path d="M393.219 550.609C393.219 550.609 376.587 532.438 375.212 521.255" stroke="url(#paint24_linear_8_212)" stroke-width="3" stroke-miterlimit="10"/>
<path d="M407.142 537.083V557.968C407.142 557.968 443.281 551.102 453.702 568.246C464.122 585.389 466.206 588.801 440.488 590.857C426.608 597.722 449.533 620.991 449.533 620.991" stroke="url(#paint25_linear_8_212)" stroke-width="3" stroke-miterlimit="10"/>
<path d="M487.631 503.455L497.051 521.667C497.051 521.667 473.167 533.301 473.167 564.135C473.167 594.968 493.842 571 493.842 571C493.842 571 499.594 555.912 512.099 597.722" stroke="url(#paint26_linear_8_212)" stroke-width="3" stroke-miterlimit="10"/>
<path d="M493.842 476.198L500.261 502.879" stroke="url(#paint27_linear_8_212)" stroke-width="3" stroke-miterlimit="10"/>
<path d="M470.249 492.807L478.044 504.564C478.044 504.564 487.464 503.043 500.261 502.92C515.85 502.797 536.483 504.729 550.989 514.143" stroke="url(#paint28_linear_8_212)" stroke-width="3" stroke-miterlimit="10"/>
<path d="M544.361 492.807C544.361 492.807 568.162 470.771 632.187 492.807" stroke="url(#paint29_linear_8_212)" stroke-width="3" stroke-miterlimit="10"/>
<path d="M512.1 459.26C512.1 459.26 521.562 466.866 538.693 464.81" stroke="url(#paint30_linear_8_212)" stroke-width="3" stroke-miterlimit="10"/>
<path d="M541.277 451.285L559.618 459.26C559.618 459.26 572.456 430.195 607.928 439.445C626.727 441.5 609.221 455.19 609.221 455.19C609.221 455.19 596.632 470.936 648.528 470.936" stroke="url(#paint31_linear_8_212)" stroke-width="3" stroke-miterlimit="10"/>
<path d="M575.582 366.76L595.465 373.872C595.465 373.872 590.505 405.898 607.928 417.532C625.352 429.167 630.187 433.977 628.103 412.064C626.018 390.152 660.74 414.819 660.74 414.819" stroke="url(#paint32_linear_8_212)" stroke-width="3" stroke-miterlimit="10"/>
<path d="M609.179 339.585C609.179 339.585 621.642 379.833 669.661 398.991" stroke="url(#paint33_linear_8_212)" stroke-width="3" stroke-miterlimit="10"/>
<path d="M564.661 344.93C564.661 344.93 573.623 343.861 585.544 355.66" stroke="url(#paint34_linear_8_212)" stroke-width="3" stroke-miterlimit="10"/>
<path d="M565.578 318.66L585.586 301.928" stroke="url(#paint35_linear_8_212)" stroke-width="3" stroke-miterlimit="10"/>
<path d="M607.929 319.893C607.929 319.893 613.348 284.702 669.703 257.61" stroke="url(#paint36_linear_8_212)" stroke-width="3" stroke-miterlimit="10"/>
<path d="M574.082 288.731L596.841 285.196C596.841 285.196 587.796 264.023 601.009 246.921C614.223 229.778 624.644 233.478 624.644 233.478C624.644 233.478 630.479 236.643 628.27 250.333C626.061 264.023 660.074 245.523 660.074 245.523" stroke="url(#paint37_linear_8_212)" stroke-width="3" stroke-miterlimit="10"/>
<path d="M543.069 165.686C543.069 165.686 573.915 187.557 628.103 168.604" stroke="url(#paint38_linear_8_212)" stroke-width="3" stroke-miterlimit="10"/>
<path d="M538.734 207.906C538.734 207.906 564.911 189.324 565.578 204.412C566.287 219.5 635.064 234.875 611.43 203.22C601.009 190.722 633.647 183.856 633.647 183.856" stroke="url(#paint39_linear_8_212)" stroke-width="3" stroke-miterlimit="10"/>
<path d="M515.393 197.053H536.609" stroke="url(#paint40_linear_8_212)" stroke-width="3" stroke-miterlimit="10"/>
<path d="M498.344 180.362V156.806" stroke="url(#paint41_linear_8_212)" stroke-width="3" stroke-miterlimit="10"/>
<path d="M547.321 149.652C547.321 149.652 531.523 201 541.235 214.731C533.857 220.939 533.857 220.939 533.857 220.939" stroke="url(#paint42_linear_8_212)" stroke-width="3" stroke-miterlimit="10"/>
<path d="M489.632 155.942C489.632 155.942 510.598 135.222 492.55 129.713C474.501 124.246 469.624 85.1489 485.588 81.0378C494.634 98.1811 516.892 87.5744 509.223 54.6855" stroke="url(#paint43_linear_8_212)" stroke-width="3" stroke-miterlimit="10"/>
<path d="M565.579 98.2222C565.579 98.2222 560.452 136.497 553.657 147.843" stroke="url(#paint44_linear_8_212)" stroke-width="3" stroke-miterlimit="10"/>
<path d="M536.609 152.283C536.609 152.283 510.724 143.773 528.773 66.5256" stroke="url(#paint45_linear_8_212)" stroke-width="3" stroke-miterlimit="10"/>
<path d="M472.25 161.204L477.335 153.722C477.335 153.722 500.553 163.671 553.615 147.843C567.371 143.732 583.127 137.936 600.967 129.754" stroke="url(#paint46_linear_8_212)" stroke-width="3" stroke-miterlimit="10"/>
<path d="M404.891 120.792V99.5788C404.891 99.5788 428.733 109.158 446.782 94.7689C469.708 83.7922 457.203 71.4589 457.203 71.4589C457.203 71.4589 430.109 77.6256 450.95 41.3245" stroke="url(#paint47_linear_8_212)" stroke-width="3" stroke-miterlimit="10"/>
<path d="M460.621 27.9224C460.621 27.9224 466.582 87.0402 513.308 49.7935" stroke="url(#paint48_linear_8_212)" stroke-width="3" stroke-miterlimit="10"/>
<path d="M59.8389 260.94C59.8389 260.94 107.858 274.301 119.612 319.893" stroke="url(#paint49_linear_8_212)" stroke-width="3" stroke-miterlimit="10"/>
<path d="M311.312 218.472H288.387V429.167H311.312V218.472Z" fill="url(#paint50_linear_8_212)"/>
<path d="M435.319 218.472H411.352V429.167H435.319V218.472Z" fill="url(#paint51_linear_8_212)"/>
<path d="M311.312 301.023C311.312 301.023 315.647 327.91 364.792 321.25C384.258 311.671 411.352 324.868 411.352 338.722" stroke="url(#paint52_linear_8_212)" stroke-miterlimit="10"/>
<path d="M319.898 136.209V122.889C319.898 122.889 351.619 115.366 384.966 25.5789" stroke="url(#paint53_linear_8_212)" stroke-width="3" stroke-miterlimit="10"/>
<path d="M411.143 136.209V124.246C411.143 124.246 380.089 114.667 343.283 25.5789" stroke="url(#paint54_linear_8_212)" stroke-width="3" stroke-miterlimit="10"/>
<path d="M644.776 182.253C644.776 182.253 617.766 230.312 671.912 233.478" stroke="url(#paint55_linear_8_212)" stroke-width="3" stroke-miterlimit="10"/>
<path d="M561.118 285.196H571.831C571.831 285.196 584.294 308.875 628.228 331.98C640.274 338.311 654.697 344.601 671.912 350.357" stroke="url(#paint56_linear_8_212)" stroke-width="3" stroke-miterlimit="10"/>
<path d="M559.618 373.872H571.123C571.123 373.872 574.916 365.527 585.587 355.701C594.465 347.52 608.095 338.27 628.228 331.98L675.914 305.34" stroke="url(#paint57_linear_8_212)" stroke-width="3" stroke-miterlimit="10"/>
<path d="M671.912 426.371C671.912 426.371 623.393 435.498 651.821 476.198" stroke="url(#paint58_linear_8_212)" stroke-width="3" stroke-miterlimit="10"/>
<path d="M533.899 431.88L543.07 441.5C543.07 441.5 533.608 475.088 550.989 510.032L598.216 529.231" stroke="url(#paint59_linear_8_212)" stroke-width="3" stroke-miterlimit="10"/>
<path d="M566.954 564.134L550.989 510.032" stroke="url(#paint60_linear_8_212)" stroke-width="3" stroke-miterlimit="10"/>
<path d="M461.913 633.612C461.913 633.612 461.955 580.62 513.767 610.755" stroke="url(#paint61_linear_8_212)" stroke-width="3" stroke-miterlimit="10"/>
<path d="M407.141 517.432V537.083C407.141 537.083 352.286 584.69 343.241 633.366" stroke="url(#paint62_linear_8_212)" stroke-width="3" stroke-miterlimit="10"/>
<path d="M318.273 516.158V534C324.443 536.179 330.403 540.372 336.114 545.881C364.458 573.261 385.675 632.667 385.675 632.667" stroke="url(#paint63_linear_8_212)" stroke-width="3" stroke-miterlimit="10"/>
<path d="M216.858 611.412C216.858 611.412 249.705 578.236 271.463 630.447" stroke="url(#paint64_linear_8_212)" stroke-width="3" stroke-miterlimit="10"/>
<path d="M260.792 492.807L252.289 503.454C252.289 503.454 170.298 503.167 130.699 527.833" stroke="url(#paint65_linear_8_212)" stroke-width="3" stroke-miterlimit="10"/>
<path d="M197.101 431.88L185.555 440.801C202.936 470.278 162.629 560.722 162.629 560.722" stroke="url(#paint66_linear_8_212)" stroke-width="3" stroke-miterlimit="10"/>
<path d="M79.2627 478.747C79.2627 478.747 116.652 435.868 55.9619 427.358" stroke="url(#paint67_linear_8_212)" stroke-width="3" stroke-miterlimit="10"/>
<path d="M69.5508 415.477C69.5508 415.477 104.273 392.167 104.981 415.477C105.69 438.787 134.159 416.833 134.868 388.056C128.616 366.76 148.748 366.76 148.748 366.76L158.461 370.83" stroke="url(#paint68_linear_8_212)" stroke-width="3" stroke-miterlimit="10"/>
<path d="M170.632 370.83H158.46C158.46 370.83 106.357 319.523 56.3369 311.301" stroke="url(#paint69_linear_8_212)" stroke-width="3" stroke-miterlimit="10"/>
<path d="M55.6699 351.754C55.6699 351.754 156.418 306.368 158.502 285.196H169.923" stroke="url(#paint70_linear_8_212)" stroke-width="3" stroke-miterlimit="10"/>
<path d="M57.4209 233.149C57.4209 233.149 105.69 236.643 82.7642 183.898" stroke="url(#paint71_linear_8_212)" stroke-width="3" stroke-miterlimit="10"/>
<path d="M162.629 99.8667C162.629 99.8667 198.976 180.732 185.68 218.061L195.725 222.625" stroke="url(#paint72_linear_8_212)" stroke-width="3" stroke-miterlimit="10"/>
<path d="M130.699 131.81C130.699 131.81 242.285 157.628 248.787 155.983L258.041 161.698" stroke="url(#paint73_linear_8_212)" stroke-width="3" stroke-miterlimit="10"/>
<path d="M218.984 48.1076C218.984 48.1076 256.166 76.8443 267.42 29.3198" stroke="url(#paint74_linear_8_212)" stroke-width="3" stroke-miterlimit="10"/>
<path d="M19.5308 724.468H0.773438V879.333H19.5308V724.468Z" fill="url(#paint75_linear_8_212)"/>
<path d="M108.441 724.468H90.3926V879.333H108.441V724.468Z" fill="url(#paint76_linear_8_212)"/>
<path d="M157.085 724.468H139.703V879.333H157.085V724.468Z" fill="url(#paint77_linear_8_212)"/>
<path d="M197.976 872.262C193.141 869.631 191.432 863.629 194.099 858.86L263.793 735.362C266.461 730.593 272.547 728.908 277.382 731.539C282.217 734.17 283.926 740.172 281.258 744.941L211.564 868.439C208.855 873.208 202.769 874.893 197.976 872.262Z" fill="url(#paint78_linear_8_212)"/>
<path d="M19.5312 786.833C19.5312 786.833 20.5733 805.868 61.2143 798.139C79.4714 793.411 90.3924 812.528 90.3924 812.528" stroke="url(#paint79_linear_8_212)" stroke-miterlimit="10"/>
<path d="M267.712 722.618L263.794 735.403L282.426 741.118L287.303 724.509H263.335H234.157H186.722V741.118C186.722 741.118 220.61 723.111 227.363 722.618" fill="url(#paint80_linear_8_212)"/>
<path d="M197.184 853.392L183.137 879.333H287.344V861.861L271.463 873.495L204.603 873.29" fill="url(#paint81_linear_8_212)"/>
<path d="M34.7451 1020.02C41.7479 1019.69 42.4148 1018.29 42.4148 1012.29V978.576C42.4148 972.573 41.7479 971.176 34.7451 970.847V969.696H70.1757C70.1757 974.136 70.5925 978.411 70.926 982.358L69.4254 982.522C67.8415 973.807 65.674 971.669 56.0869 971.669H49.0841C46.9166 971.669 46.7498 971.833 46.7498 973.971V993.951H56.3369C64.1734 993.951 64.8403 993.211 66.2575 987.702H67.6747V1003.65H66.2575C64.8403 997.24 64.1734 996.253 56.3369 996.253H46.7498V1012.29C46.7498 1018.29 47.5001 1019.6 55.9201 1020.02V1021.17H34.7451V1020.02Z" fill="#E3BC17"/>
<path d="M110.608 1020.02C115.36 1019.36 117.111 1018.86 117.111 1016.89C117.111 1014.75 114.61 1008.34 111.525 1000.78H92.2674C91.4338 1002.34 87.2655 1013.44 87.2655 1015.99C87.2655 1018.78 89.5164 1019.28 94.1849 1020.02V1021.17H75.2607V1020.02C81.0964 1018.86 82.1802 1018.12 85.2647 1010.72L103.355 968.873L104.356 968.462L109.941 983.673C113.776 993.951 117.527 1004.23 120.695 1012.12C123.196 1018.21 123.863 1019.11 129.699 1020.02V1021.17H110.608V1020.02ZM102.521 976.109C99.1868 983.427 95.9355 991.238 93.2678 998.145H110.775L102.688 976.109H102.521Z" fill="#E3BC17"/>
<path d="M162.462 981.618C161.045 976.849 159.044 970.353 150.957 970.353C144.955 970.353 141.954 974.218 141.954 979.562C141.954 986.469 147.039 989.182 152.458 991.896C156.126 993.704 166.38 997.24 166.38 1007.52C166.38 1016.07 159.711 1022.24 149.207 1022.4C145.789 1022.24 142.871 1021.74 140.787 1021.08C138.786 1020.43 137.702 1019.85 137.202 1019.52C136.535 1017.38 135.701 1011.46 135.201 1006.53H136.535C137.869 1010.97 141.454 1020.26 151.207 1020.26C157.627 1020.26 161.545 1016.81 161.545 1009.57C161.545 1001.27 154.709 998.473 150.29 996.007C149.54 995.596 137.285 991.731 137.285 981.7C137.285 974.876 142.954 968.462 152.791 968.462C155.542 968.462 157.96 968.709 162.545 970.189C162.879 972.984 163.296 976.027 163.879 981.618H162.462Z" fill="#E3BC17"/>
<path d="M185.221 992.718H220.401V979.069C220.401 972.656 219.734 971.422 212.565 970.847V969.696H232.74V970.847C225.403 971.422 224.736 972.656 224.736 979.069V1011.79C224.736 1018.29 225.403 1019.52 232.489 1020.02V1021.17H211.898V1020.02C219.734 1019.52 220.401 1018.29 220.401 1011.79V995.267H185.221V1011.79C185.221 1018.29 185.971 1019.52 193.307 1020.02V1021.17H173.216V1020.02C180.219 1019.52 180.886 1018.29 180.886 1011.79V979.069C180.886 972.656 180.219 971.422 172.883 970.847V969.696H192.891V970.847C185.971 971.422 185.221 972.656 185.221 979.069V992.718Z" fill="#E3BC17"/>
<path d="M238.992 1020.02C246.245 1019.69 246.912 1018.29 246.912 1011.79V979.069C246.912 972.656 246.245 971.258 238.992 970.847V969.696H259.167V970.847C251.997 971.258 251.247 972.656 251.247 979.069V1011.79C251.247 1018.29 251.997 1019.69 259.167 1020.02V1021.17H238.992V1020.02Z" fill="#E3BC17"/>
<path d="M322.9 994.691C322.9 1011.05 309.645 1022.4 293.805 1022.4C278.549 1022.4 266.211 1011.3 266.211 996.089C266.211 982.276 277.049 968.462 295.639 968.462C309.52 968.462 322.9 978.74 322.9 994.691ZM272.005 993.704C272.005 1009.74 282.259 1020.43 295.764 1020.43C307.019 1020.43 317.189 1012.78 317.189 998.145C317.189 979.48 306.602 970.436 293.18 970.436C282.092 970.518 272.005 977.836 272.005 993.704Z" fill="#E3BC17"/>
<path d="M329.277 1020.02C334.196 1019.69 336.53 1018.04 337.197 1015.74C337.864 1013.27 338.114 1008.75 338.114 1000.45V982.604C338.114 975.287 337.697 975.698 336.197 973.889C334.779 972.244 333.029 971.34 328.61 970.847V969.696H338.864L377.38 1013.11H377.63V989.676C377.63 973.642 377.546 971.504 367.792 970.847V969.696H388.467V970.847C383.632 971.258 381.548 972.82 380.798 975.204C380.047 977.753 379.964 981.947 379.964 989.676V1021.74H379.047L340.615 978.576H340.448V1000.45C340.532 1008.75 340.615 1013.27 341.199 1015.58C341.949 1018.12 344.45 1019.6 350.035 1020.02V1021.17H329.277V1020.02Z" fill="#E3BC17"/>
<path d="M427.399 1020.02C434.902 1019.69 435.486 1018.29 435.486 1011.79V979.069C435.319 972.656 434.986 971.258 427.983 970.929V969.696H448.157C459.745 969.696 464.247 973.889 464.247 981.042C464.247 988.196 457.244 991.567 453.493 992.471V992.636C460.829 993.704 467.915 997.98 467.915 1005.87C467.915 1011.55 464.997 1015.58 459.912 1018.29C455.66 1020.43 450.408 1021.17 444.073 1021.17H427.399V1020.02ZM445.99 992.142C455.244 992.142 459.162 988.278 459.162 981.782C459.162 978.164 457.828 971.34 445.573 971.34C442.905 971.34 441.572 971.422 440.988 971.504C440.404 971.587 439.988 971.751 439.988 973.313V992.142H445.99ZM439.988 993.869V1012.2C439.988 1017.63 441.071 1019.28 447.657 1019.28C455.827 1019.28 462.246 1016.15 462.246 1007.11C462.246 998.062 455.577 993.869 445.907 993.869H439.988Z" fill="#E3BC17"/>
<path d="M474.084 1020.02C481.504 1019.69 482.17 1018.29 482.17 1011.79V978.822C482.17 972.327 481.504 971.422 474.501 970.929V969.696H494.175C502.428 969.696 511.432 972.162 511.432 982.687C511.432 989.676 507.681 993.787 501.261 996.664C502.595 999.213 506.097 1004.48 508.681 1007.93C512.683 1012.78 518.518 1019.85 522.77 1020.84L522.52 1021.91C514.933 1021.91 510.932 1021.5 498.344 1001.19C496.259 998.227 493.758 998.145 486.672 998.145V1011.79C486.672 1018.29 487.339 1019.69 494.509 1020.02V1021.17H474.084V1020.02ZM491.758 996.5C496.593 996.5 499.677 995.842 501.928 994.033C504.679 991.896 506.263 988.607 506.263 983.92C506.263 975.122 500.511 971.34 491.841 971.34C489.59 971.34 488.173 971.422 487.423 971.504C487.006 971.504 486.672 971.751 486.672 973.313V996.5H491.758Z" fill="#E3BC17"/>
<path d="M560.118 1020.02C564.87 1019.36 566.62 1018.86 566.62 1016.89C566.62 1014.75 564.119 1008.34 561.035 1000.78H541.777C540.944 1002.34 536.775 1013.44 536.775 1015.99C536.775 1018.78 539.026 1019.28 543.695 1020.02V1021.17H524.771V1020.02C530.606 1018.86 531.69 1018.12 534.774 1010.72L552.865 968.873L553.865 968.462L559.451 983.673C563.286 993.951 567.037 1004.23 570.205 1012.12C572.706 1018.21 573.373 1019.11 579.209 1020.02V1021.17H560.118V1020.02ZM552.031 976.109C548.697 983.427 545.445 991.238 542.778 998.145H560.285L552.198 976.109H552.031Z" fill="#E3BC17"/>
<path d="M583.044 1020.02C587.962 1019.69 590.297 1018.04 590.964 1015.74C591.631 1013.27 591.881 1008.75 591.881 1000.45V982.604C591.881 975.287 591.464 975.698 589.963 973.889C588.546 972.244 586.795 971.34 582.377 970.847V969.696H592.631L631.146 1013.11H631.396V989.676C631.396 973.642 631.313 971.504 621.559 970.847V969.696H642.234V970.847C637.399 971.258 635.314 972.82 634.564 975.204C633.814 977.753 633.73 981.947 633.73 989.676V1021.74H632.813L594.382 978.576H594.215V1000.45C594.298 1008.75 594.382 1013.27 594.965 1015.58C595.715 1018.12 598.217 1019.6 603.802 1020.02V1021.17H583.044V1020.02Z" fill="#E3BC17"/>
<path d="M646.485 1020.02C654.072 1019.69 654.739 1018.29 654.739 1011.79V979.069C654.739 972.656 654.072 971.258 647.236 970.929V969.696H671.495C681.582 969.696 689.669 971.34 694.754 976.191C699.173 980.302 701.507 986.058 701.507 993.211C701.507 1015 682.333 1021.17 665.66 1021.17H646.485V1020.02ZM659.074 1011.55C659.074 1017.88 660.407 1019.19 668.744 1019.19C689.169 1019.19 696.005 1006.12 696.005 995.184C696.005 985.811 692.17 977.342 684.333 973.724C680.582 972.327 675.247 971.34 667.16 971.34C662.908 971.34 660.574 971.422 659.824 971.504C659.407 971.504 659.074 971.587 659.074 973.067V1011.55Z" fill="#E3BC17"/>
<path d="M365.5 521.667C476.001 521.667 565.579 434.238 565.579 326.389C565.579 218.54 476.001 131.111 365.5 131.111C255 131.111 165.422 218.54 165.422 326.389C165.422 434.238 255 521.667 365.5 521.667Z" stroke="url(#paint82_linear_8_212)" stroke-width="3" stroke-miterlimit="10"/>
<path d="M343.283 25.579L362.749 2.26904L384.966 25.579C384.966 25.579 432.193 18.7135 450.95 41.3246C465.539 8.43571 498.885 21.7968 498.885 21.7968C498.885 21.7968 516.934 37.2134 513.474 64.6345C532.94 57.769 565.578 98.2224 565.578 98.2224H601.009V129.755C601.009 129.755 635.064 155.12 633.646 183.898C663.533 175.676 678.122 201.041 678.122 201.041C678.122 201.041 686.459 225.708 660.074 245.565C684.375 264.763 674.663 314.755 674.663 314.755L698.297 329.144L675.371 349.699C675.371 349.699 682.332 392.866 660.782 414.778C689.252 436.69 674.663 463.412 674.663 463.412C674.663 463.412 662.158 479.857 633.688 477.102C639.232 504.523 598.258 529.19 598.258 529.19L601.717 564.135H566.995C566.995 564.135 544.778 594.968 512.099 597.722C520.769 627.857 494.05 637.477 494.05 637.477C494.05 637.477 462.788 645 449.574 621.032C438.445 638.587 385.674 632.667 385.674 632.667L365.541 662.144L343.324 633.366C343.324 633.366 297.473 640.889 278.716 621.731C262.751 647.755 234.24 637.477 234.24 637.477C234.24 637.477 216.858 635.421 215.483 597.722C189.097 600.477 162.67 560.722 162.67 560.722L127.948 564.135L130.741 527.833C130.741 527.833 101.563 513.445 95.3105 477.144C62.6727 486.722 52.252 455.889 52.252 455.889C52.252 455.889 43.9154 428.468 69.6338 415.477C50.9598 398.334 52.9606 362.731 55.7533 351.755C40.6641 345.382 31.4521 332.227 31.4521 332.227L56.462 311.342C56.462 311.342 48.834 263.366 70.3424 245.565C45.3326 230.477 52.9606 202.398 52.9606 202.398C52.9606 202.398 62.0058 181.144 95.3522 185.255C87.0156 163.342 130.783 131.81 130.783 131.81L127.323 96.8658L162.754 100.278C162.754 100.278 184.304 66.6901 218.317 64.6345C214.149 42.7223 232.906 23.5234 232.906 23.5234C232.906 23.5234 254.456 14.6024 279.466 38.6113C299.515 16.699 343.283 25.579 343.283 25.579Z" stroke="url(#paint83_linear_8_212)" stroke-width="3" stroke-miterlimit="10"/>
<path d="M315.522 721.056C314.313 790.328 314.48 813.638 315.147 816.639C315.23 816.968 315.814 819.434 316.022 822.806C316.147 824.861 316.064 826.506 316.022 827.451C316.356 829.096 316.856 831.398 317.606 834.152C319.065 839.456 321.816 849.487 327.944 857.627C334.946 866.918 344.117 870.906 349.577 873.208C387.092 888.953 419.063 870.453 431.568 840.319C437.236 810.185 435.027 722.453 431.568 721.097C428.108 719.74 416.27 721.097 416.27 721.097C420.73 733.101 425.107 748.353 427.524 766.319C430.901 791.479 429.192 813.021 426.691 828.684C426.691 828.684 421.605 856.434 399.138 866.836C396.137 868.233 384.216 873.413 370.419 869.796C347.618 863.793 338.364 838.428 335.321 830.041C332.32 821.819 332.07 804.388 331.653 769.896C331.653 769.896 331.487 756.37 331.487 720.48L315.522 721.056Z" fill="url(#paint84_linear_8_212)" stroke="url(#paint85_linear_8_212)" stroke-miterlimit="10"/>
<path d="M710.636 712.422C710.636 712.422 660.074 802.867 657.49 818.283C651.904 837.811 646.527 889.734 676.789 854.256C703.883 818.283 688.252 813.144 732.561 802.867" stroke="url(#paint86_linear_8_212)" stroke-miterlimit="10"/>
<path d="M754.528 866.383H779.038L709.469 712.422L698.256 732.731L754.528 866.383Z" fill="url(#paint87_linear_8_212)"/>
<path d="M479.087 870.083C500.97 869.097 502.929 864.986 502.929 845.828V748.559C502.929 729.401 500.97 726.729 480.295 725.249V721.631H538.36C562.703 721.631 589.255 728.908 589.255 759.947C589.255 780.543 578.167 792.712 559.243 801.181C563.161 808.704 573.499 824.245 581.127 834.399C592.923 848.706 610.138 869.59 622.685 872.468L621.934 875.633C599.55 875.633 587.754 874.441 550.615 814.501C544.446 805.786 537.068 805.539 516.184 805.539V845.787C516.184 864.944 518.144 869.056 539.319 870.042V873.455H479.045V870.083H479.087ZM531.232 800.729C545.488 800.729 554.616 798.797 561.244 793.452C569.372 787.162 574.041 777.46 574.041 763.606C574.041 737.665 557.076 726.482 531.482 726.482C524.855 726.482 520.645 726.729 518.435 726.976C517.227 726.976 516.226 727.716 516.226 732.32V800.729H531.232Z" fill="#E3BC17"/>
<defs>
<linearGradient id="paint0_linear_8_212" x1="374.799" y1="61.8898" x2="438.508" y2="61.8898" gradientUnits="userSpaceOnUse">
<stop stop-color="#CC8E12"/>
<stop offset="1" stop-color="#FEEB55"/>
</linearGradient>
<linearGradient id="paint1_linear_8_212" x1="372.366" y1="121.414" x2="398.735" y2="121.414" gradientUnits="userSpaceOnUse">
<stop stop-color="#CC8E12"/>
<stop offset="1" stop-color="#FEEB55"/>
</linearGradient>
<linearGradient id="paint2_linear_8_212" x1="331.639" y1="121.244" x2="357.316" y2="121.244" gradientUnits="userSpaceOnUse">
<stop stop-color="#CC8E12"/>
<stop offset="1" stop-color="#FEEB55"/>
</linearGradient>
<linearGradient id="paint3_linear_8_212" x1="290.164" y1="61.6568" x2="355.463" y2="61.6568" gradientUnits="userSpaceOnUse">
<stop stop-color="#CC8E12"/>
<stop offset="1" stop-color="#FEEB55"/>
</linearGradient>
<linearGradient id="paint4_linear_8_212" x1="257.257" y1="79.2942" x2="330.604" y2="79.2942" gradientUnits="userSpaceOnUse">
<stop stop-color="#CC8E12"/>
<stop offset="1" stop-color="#FEEB55"/>
</linearGradient>
<linearGradient id="paint5_linear_8_212" x1="212.874" y1="109.246" x2="260.235" y2="109.246" gradientUnits="userSpaceOnUse">
<stop stop-color="#CC8E12"/>
<stop offset="1" stop-color="#FEEB55"/>
</linearGradient>
<linearGradient id="paint6_linear_8_212" x1="190.747" y1="108.315" x2="213.991" y2="108.315" gradientUnits="userSpaceOnUse">
<stop stop-color="#CC8E12"/>
<stop offset="1" stop-color="#FEEB55"/>
</linearGradient>
<linearGradient id="paint7_linear_8_212" x1="96.6509" y1="171.86" x2="187.896" y2="171.86" gradientUnits="userSpaceOnUse">
<stop stop-color="#CC8E12"/>
<stop offset="1" stop-color="#FEEB55"/>
</linearGradient>
<linearGradient id="paint8_linear_8_212" x1="218.385" y1="168.085" x2="234.931" y2="168.085" gradientUnits="userSpaceOnUse">
<stop stop-color="#CC8E12"/>
<stop offset="1" stop-color="#FEEB55"/>
</linearGradient>
<linearGradient id="paint9_linear_8_212" x1="187.751" y1="198.67" x2="213.591" y2="198.67" gradientUnits="userSpaceOnUse">
<stop stop-color="#CC8E12"/>
<stop offset="1" stop-color="#FEEB55"/>
</linearGradient>
<linearGradient id="paint10_linear_8_212" x1="94.4801" y1="204.016" x2="192.515" y2="204.016" gradientUnits="userSpaceOnUse">
<stop stop-color="#CC8E12"/>
<stop offset="1" stop-color="#FEEB55"/>
</linearGradient>
<linearGradient id="paint11_linear_8_212" x1="67.4495" y1="263.842" x2="156.018" y2="263.842" gradientUnits="userSpaceOnUse">
<stop stop-color="#CC8E12"/>
<stop offset="1" stop-color="#FEEB55"/>
</linearGradient>
<linearGradient id="paint12_linear_8_212" x1="140.737" y1="310.912" x2="169.566" y2="310.912" gradientUnits="userSpaceOnUse">
<stop stop-color="#CC8E12"/>
<stop offset="1" stop-color="#FEEB55"/>
</linearGradient>
<linearGradient id="paint13_linear_8_212" x1="57.4211" y1="372.586" x2="125.747" y2="372.586" gradientUnits="userSpaceOnUse">
<stop stop-color="#CC8E12"/>
<stop offset="1" stop-color="#FEEB55"/>
</linearGradient>
<linearGradient id="paint14_linear_8_212" x1="93.7644" y1="457.271" x2="191.468" y2="457.271" gradientUnits="userSpaceOnUse">
<stop stop-color="#CC8E12"/>
<stop offset="1" stop-color="#FEEB55"/>
</linearGradient>
<linearGradient id="paint15_linear_8_212" x1="97.4033" y1="488.134" x2="188.736" y2="488.134" gradientUnits="userSpaceOnUse">
<stop stop-color="#CC8E12"/>
<stop offset="1" stop-color="#FEEB55"/>
</linearGradient>
<linearGradient id="paint16_linear_8_212" x1="191.351" y1="549.907" x2="214.051" y2="549.907" gradientUnits="userSpaceOnUse">
<stop stop-color="#CC8E12"/>
<stop offset="1" stop-color="#FEEB55"/>
</linearGradient>
<linearGradient id="paint17_linear_8_212" x1="189.223" y1="463.676" x2="222.346" y2="463.676" gradientUnits="userSpaceOnUse">
<stop stop-color="#CC8E12"/>
<stop offset="1" stop-color="#FEEB55"/>
</linearGradient>
<linearGradient id="paint18_linear_8_212" x1="209.317" y1="549.868" x2="260.649" y2="549.868" gradientUnits="userSpaceOnUse">
<stop stop-color="#CC8E12"/>
<stop offset="1" stop-color="#FEEB55"/>
</linearGradient>
<linearGradient id="paint19_linear_8_212" x1="-nan" y1="-nan" x2="-nan" y2="-nan" gradientUnits="userSpaceOnUse">
<stop stop-color="#CC8E12"/>
<stop offset="1" stop-color="#FEEB55"/>
</linearGradient>
<linearGradient id="paint20_linear_8_212" x1="287.084" y1="597.575" x2="356.475" y2="597.575" gradientUnits="userSpaceOnUse">
<stop stop-color="#CC8E12"/>
<stop offset="1" stop-color="#FEEB55"/>
</linearGradient>
<linearGradient id="paint21_linear_8_212" x1="261.476" y1="581.362" x2="331.037" y2="581.362" gradientUnits="userSpaceOnUse">
<stop stop-color="#CC8E12"/>
<stop offset="1" stop-color="#FEEB55"/>
</linearGradient>
<linearGradient id="paint22_linear_8_212" x1="372.972" y1="597.898" x2="439.942" y2="597.898" gradientUnits="userSpaceOnUse">
<stop stop-color="#CC8E12"/>
<stop offset="1" stop-color="#FEEB55"/>
</linearGradient>
<linearGradient id="paint23_linear_8_212" x1="334.704" y1="536.08" x2="358.075" y2="536.08" gradientUnits="userSpaceOnUse">
<stop stop-color="#CC8E12"/>
<stop offset="1" stop-color="#FEEB55"/>
</linearGradient>
<linearGradient id="paint24_linear_8_212" x1="369.004" y1="537.602" x2="397.853" y2="537.602" gradientUnits="userSpaceOnUse">
<stop stop-color="#CC8E12"/>
<stop offset="1" stop-color="#FEEB55"/>
</linearGradient>
<linearGradient id="paint25_linear_8_212" x1="400.901" y1="581.199" x2="467.259" y2="581.199" gradientUnits="userSpaceOnUse">
<stop stop-color="#CC8E12"/>
<stop offset="1" stop-color="#FEEB55"/>
</linearGradient>
<linearGradient id="paint26_linear_8_212" x1="466.928" y1="550.062" x2="518.082" y2="550.062" gradientUnits="userSpaceOnUse">
<stop stop-color="#CC8E12"/>
<stop offset="1" stop-color="#FEEB55"/>
</linearGradient>
<linearGradient id="paint27_linear_8_212" x1="487.752" y1="489.544" x2="506.355" y2="489.544" gradientUnits="userSpaceOnUse">
<stop stop-color="#CC8E12"/>
<stop offset="1" stop-color="#FEEB55"/>
</linearGradient>
<linearGradient id="paint28_linear_8_212" x1="465.014" y1="504.349" x2="554.425" y2="504.349" gradientUnits="userSpaceOnUse">
<stop stop-color="#CC8E12"/>
<stop offset="1" stop-color="#FEEB55"/>
</linearGradient>
<linearGradient id="paint29_linear_8_212" x1="540.105" y1="487.734" x2="634.251" y2="487.734" gradientUnits="userSpaceOnUse">
<stop stop-color="#CC8E12"/>
<stop offset="1" stop-color="#FEEB55"/>
</linearGradient>
<linearGradient id="paint30_linear_8_212" x1="508.171" y1="462.893" x2="539.479" y2="462.893" gradientUnits="userSpaceOnUse">
<stop stop-color="#CC8E12"/>
<stop offset="1" stop-color="#FEEB55"/>
</linearGradient>
<linearGradient id="paint31_linear_8_212" x1="538.77" y1="454.292" x2="648.485" y2="454.292" gradientUnits="userSpaceOnUse">
<stop stop-color="#CC8E12"/>
<stop offset="1" stop-color="#FEEB55"/>
</linearGradient>
<linearGradient id="paint32_linear_8_212" x1="573.452" y1="397.247" x2="664.408" y2="397.247" gradientUnits="userSpaceOnUse">
<stop stop-color="#CC8E12"/>
<stop offset="1" stop-color="#FEEB55"/>
</linearGradient>
<linearGradient id="paint33_linear_8_212" x1="603.214" y1="371.265" x2="672.035" y2="371.265" gradientUnits="userSpaceOnUse">
<stop stop-color="#CC8E12"/>
<stop offset="1" stop-color="#FEEB55"/>
</linearGradient>
<linearGradient id="paint34_linear_8_212" x1="563.922" y1="349.388" x2="590.007" y2="349.388" gradientUnits="userSpaceOnUse">
<stop stop-color="#CC8E12"/>
<stop offset="1" stop-color="#FEEB55"/>
</linearGradient>
<linearGradient id="paint35_linear_8_212" x1="561.537" y1="310.301" x2="589.627" y2="310.301" gradientUnits="userSpaceOnUse">
<stop stop-color="#CC8E12"/>
<stop offset="1" stop-color="#FEEB55"/>
</linearGradient>
<linearGradient id="paint36_linear_8_212" x1="601.73" y1="286.418" x2="672.429" y2="286.418" gradientUnits="userSpaceOnUse">
<stop stop-color="#CC8E12"/>
<stop offset="1" stop-color="#FEEB55"/>
</linearGradient>
<linearGradient id="paint37_linear_8_212" x1="573.121" y1="260.896" x2="663.078" y2="260.896" gradientUnits="userSpaceOnUse">
<stop stop-color="#CC8E12"/>
<stop offset="1" stop-color="#FEEB55"/>
</linearGradient>
<linearGradient id="paint38_linear_8_212" x1="539.419" y1="171.577" x2="630.194" y2="171.577" gradientUnits="userSpaceOnUse">
<stop stop-color="#CC8E12"/>
<stop offset="1" stop-color="#FEEB55"/>
</linearGradient>
<linearGradient id="paint39_linear_8_212" x1="535.071" y1="202.874" x2="634.962" y2="202.874" gradientUnits="userSpaceOnUse">
<stop stop-color="#CC8E12"/>
<stop offset="1" stop-color="#FEEB55"/>
</linearGradient>
<linearGradient id="paint40_linear_8_212" x1="-nan" y1="-nan" x2="-nan" y2="-nan" gradientUnits="userSpaceOnUse">
<stop stop-color="#CC8E12"/>
<stop offset="1" stop-color="#FEEB55"/>
</linearGradient>
<linearGradient id="paint41_linear_8_212" x1="-nan" y1="-nan" x2="-nan" y2="-nan" gradientUnits="userSpaceOnUse">
<stop stop-color="#CC8E12"/>
<stop offset="1" stop-color="#FEEB55"/>
</linearGradient>
<linearGradient id="paint42_linear_8_212" x1="529.829" y1="186.723" x2="553.316" y2="186.723" gradientUnits="userSpaceOnUse">
<stop stop-color="#CC8E12"/>
<stop offset="1" stop-color="#FEEB55"/>
</linearGradient>
<linearGradient id="paint43_linear_8_212" x1="469.682" y1="106.827" x2="517.082" y2="106.827" gradientUnits="userSpaceOnUse">
<stop stop-color="#CC8E12"/>
<stop offset="1" stop-color="#FEEB55"/>
</linearGradient>
<linearGradient id="paint44_linear_8_212" x1="548.266" y1="124.201" x2="571.778" y2="124.201" gradientUnits="userSpaceOnUse">
<stop stop-color="#CC8E12"/>
<stop offset="1" stop-color="#FEEB55"/>
</linearGradient>
<linearGradient id="paint45_linear_8_212" x1="516.141" y1="111.649" x2="538.606" y2="111.649" gradientUnits="userSpaceOnUse">
<stop stop-color="#CC8E12"/>
<stop offset="1" stop-color="#FEEB55"/>
</linearGradient>
<linearGradient id="paint46_linear_8_212" x1="467.054" y1="144.403" x2="603.64" y2="144.403" gradientUnits="userSpaceOnUse">
<stop stop-color="#CC8E12"/>
<stop offset="1" stop-color="#FEEB55"/>
</linearGradient>
<linearGradient id="paint47_linear_8_212" x1="398.632" y1="79.5611" x2="466.859" y2="79.5611" gradientUnits="userSpaceOnUse">
<stop stop-color="#CC8E12"/>
<stop offset="1" stop-color="#FEEB55"/>
</linearGradient>
<linearGradient id="paint48_linear_8_212" x1="454.385" y1="47.8189" x2="517.23" y2="47.8189" gradientUnits="userSpaceOnUse">
<stop stop-color="#CC8E12"/>
<stop offset="1" stop-color="#FEEB55"/>
</linearGradient>
<linearGradient id="paint49_linear_8_212" x1="58.1415" y1="288.2" x2="125.68" y2="288.2" gradientUnits="userSpaceOnUse">
<stop stop-color="#CC8E12"/>
<stop offset="1" stop-color="#FEEB55"/>
</linearGradient>
<linearGradient id="paint50_linear_8_212" x1="288.387" y1="323.819" x2="311.312" y2="323.819" gradientUnits="userSpaceOnUse">
<stop stop-color="#CC8E12"/>
<stop offset="1" stop-color="#FEEB55"/>
</linearGradient>
<linearGradient id="paint51_linear_8_212" x1="411.352" y1="323.819" x2="435.319" y2="323.819" gradientUnits="userSpaceOnUse">
<stop stop-color="#CC8E12"/>
<stop offset="1" stop-color="#FEEB55"/>
</linearGradient>
<linearGradient id="paint52_linear_8_212" x1="309.254" y1="319.718" x2="413.436" y2="319.718" gradientUnits="userSpaceOnUse">
<stop stop-color="#CC8E12"/>
<stop offset="1" stop-color="#FEEB55"/>
</linearGradient>
<linearGradient id="paint53_linear_8_212" x1="313.633" y1="79.8501" x2="390.823" y2="79.8501" gradientUnits="userSpaceOnUse">
<stop stop-color="#CC8E12"/>
<stop offset="1" stop-color="#FEEB55"/>
</linearGradient>
<linearGradient id="paint54_linear_8_212" x1="337.48" y1="79.7469" x2="417.384" y2="79.7469" gradientUnits="userSpaceOnUse">
<stop stop-color="#CC8E12"/>
<stop offset="1" stop-color="#FEEB55"/>
</linearGradient>
<linearGradient id="paint55_linear_8_212" x1="631.794" y1="209.446" x2="672.29" y2="209.446" gradientUnits="userSpaceOnUse">
<stop stop-color="#CC8E12"/>
<stop offset="1" stop-color="#FEEB55"/>
</linearGradient>
<linearGradient id="paint56_linear_8_212" x1="561.104" y1="317.619" x2="673.93" y2="317.619" gradientUnits="userSpaceOnUse">
<stop stop-color="#CC8E12"/>
<stop offset="1" stop-color="#FEEB55"/>
</linearGradient>
<linearGradient id="paint57_linear_8_212" x1="559.612" y1="339.998" x2="678.999" y2="339.998" gradientUnits="userSpaceOnUse">
<stop stop-color="#CC8E12"/>
<stop offset="1" stop-color="#FEEB55"/>
</linearGradient>
<linearGradient id="paint58_linear_8_212" x1="636.64" y1="450.013" x2="673.094" y2="450.013" gradientUnits="userSpaceOnUse">
<stop stop-color="#CC8E12"/>
<stop offset="1" stop-color="#FEEB55"/>
</linearGradient>
<linearGradient id="paint59_linear_8_212" x1="529.336" y1="481.281" x2="600.611" y2="481.281" gradientUnits="userSpaceOnUse">
<stop stop-color="#CC8E12"/>
<stop offset="1" stop-color="#FEEB55"/>
</linearGradient>
<linearGradient id="paint60_linear_8_212" x1="544.986" y1="537.083" x2="572.971" y2="537.083" gradientUnits="userSpaceOnUse">
<stop stop-color="#CC8E12"/>
<stop offset="1" stop-color="#FEEB55"/>
</linearGradient>
<linearGradient id="paint61_linear_8_212" x1="455.657" y1="614.469" x2="516.948" y2="614.469" gradientUnits="userSpaceOnUse">
<stop stop-color="#CC8E12"/>
<stop offset="1" stop-color="#FEEB55"/>
</linearGradient>
<linearGradient id="paint62_linear_8_212" x1="337.119" y1="575.941" x2="413.406" y2="575.941" gradientUnits="userSpaceOnUse">
<stop stop-color="#CC8E12"/>
<stop offset="1" stop-color="#FEEB55"/>
</linearGradient>
<linearGradient id="paint63_linear_8_212" x1="312.007" y1="575.443" x2="391.545" y2="575.443" gradientUnits="userSpaceOnUse">
<stop stop-color="#CC8E12"/>
<stop offset="1" stop-color="#FEEB55"/>
</linearGradient>
<linearGradient id="paint64_linear_8_212" x1="212.389" y1="613.839" x2="277.264" y2="613.839" gradientUnits="userSpaceOnUse">
<stop stop-color="#CC8E12"/>
<stop offset="1" stop-color="#FEEB55"/>
</linearGradient>
<linearGradient id="paint65_linear_8_212" x1="127.347" y1="511.015" x2="265.691" y2="511.015" gradientUnits="userSpaceOnUse">
<stop stop-color="#CC8E12"/>
<stop offset="1" stop-color="#FEEB55"/>
</linearGradient>
<linearGradient id="paint66_linear_8_212" x1="156.919" y1="495.118" x2="200.97" y2="495.118" gradientUnits="userSpaceOnUse">
<stop stop-color="#CC8E12"/>
<stop offset="1" stop-color="#FEEB55"/>
</linearGradient>
<linearGradient id="paint67_linear_8_212" x1="55.0574" y1="452.012" x2="96.9" y2="452.012" gradientUnits="userSpaceOnUse">
<stop stop-color="#CC8E12"/>
<stop offset="1" stop-color="#FEEB55"/>
</linearGradient>
<linearGradient id="paint68_linear_8_212" x1="66.0348" y1="396.008" x2="160.924" y2="396.008" gradientUnits="userSpaceOnUse">
<stop stop-color="#CC8E12"/>
<stop offset="1" stop-color="#FEEB55"/>
</linearGradient>
<linearGradient id="paint69_linear_8_212" x1="55.3228" y1="341.12" x2="170.65" y2="341.12" gradientUnits="userSpaceOnUse">
<stop stop-color="#CC8E12"/>
<stop offset="1" stop-color="#FEEB55"/>
</linearGradient>
<linearGradient id="paint70_linear_8_212" x1="53.0576" y1="318.188" x2="169.892" y2="318.188" gradientUnits="userSpaceOnUse">
<stop stop-color="#CC8E12"/>
<stop offset="1" stop-color="#FEEB55"/>
</linearGradient>
<linearGradient id="paint71_linear_8_212" x1="56.9682" y1="210.398" x2="95.1815" y2="210.398" gradientUnits="userSpaceOnUse">
<stop stop-color="#CC8E12"/>
<stop offset="1" stop-color="#FEEB55"/>
</linearGradient>
<linearGradient id="paint72_linear_8_212" x1="156.928" y1="162.776" x2="198.342" y2="162.776" gradientUnits="userSpaceOnUse">
<stop stop-color="#CC8E12"/>
<stop offset="1" stop-color="#FEEB55"/>
</linearGradient>
<linearGradient id="paint73_linear_8_212" x1="129.257" y1="146.338" x2="261.357" y2="146.338" gradientUnits="userSpaceOnUse">
<stop stop-color="#CC8E12"/>
<stop offset="1" stop-color="#FEEB55"/>
</linearGradient>
<linearGradient id="paint74_linear_8_212" x1="215.127" y1="45.3898" x2="273.507" y2="45.3898" gradientUnits="userSpaceOnUse">
<stop stop-color="#CC8E12"/>
<stop offset="1" stop-color="#FEEB55"/>
</linearGradient>
<linearGradient id="paint75_linear_8_212" x1="0.773438" y1="801.908" x2="19.5308" y2="801.908" gradientUnits="userSpaceOnUse">
<stop stop-color="#CC8E12"/>
<stop offset="1" stop-color="#FEEB55"/>
</linearGradient>
<linearGradient id="paint76_linear_8_212" x1="90.3926" y1="801.908" x2="108.455" y2="801.908" gradientUnits="userSpaceOnUse">
<stop stop-color="#CC8E12"/>
<stop offset="1" stop-color="#FEEB55"/>
</linearGradient>
<linearGradient id="paint77_linear_8_212" x1="139.717" y1="801.908" x2="157.085" y2="801.908" gradientUnits="userSpaceOnUse">
<stop stop-color="#CC8E12"/>
<stop offset="1" stop-color="#FEEB55"/>
</linearGradient>
<linearGradient id="paint78_linear_8_212" x1="192.838" y1="801.908" x2="282.505" y2="801.908" gradientUnits="userSpaceOnUse">
<stop stop-color="#CC8E12"/>
<stop offset="1" stop-color="#FEEB55"/>
</linearGradient>
<linearGradient id="paint79_linear_8_212" x1="17.45" y1="800.13" x2="92.2072" y2="800.13" gradientUnits="userSpaceOnUse">
<stop stop-color="#CC8E12"/>
<stop offset="1" stop-color="#FEEB55"/>
</linearGradient>
<linearGradient id="paint80_linear_8_212" x1="186.784" y1="731.847" x2="287.344" y2="731.847" gradientUnits="userSpaceOnUse">
<stop stop-color="#CC8E12"/>
<stop offset="1" stop-color="#FEEB55"/>
</linearGradient>
<linearGradient id="paint81_linear_8_212" x1="183.137" y1="866.366" x2="287.344" y2="866.366" gradientUnits="userSpaceOnUse">
<stop stop-color="#CC8E12"/>
<stop offset="1" stop-color="#FEEB55"/>
</linearGradient>
<linearGradient id="paint82_linear_8_212" x1="159.169" y1="326.389" x2="571.831" y2="326.389" gradientUnits="userSpaceOnUse">
<stop stop-color="#CC8E12"/>
<stop offset="1" stop-color="#FEEB55"/>
</linearGradient>
<linearGradient id="paint83_linear_8_212" x1="22.973" y1="332.839" x2="708.617" y2="332.839" gradientUnits="userSpaceOnUse">
<stop stop-color="#CC8E12"/>
<stop offset="1" stop-color="#FEEB55"/>
</linearGradient>
<linearGradient id="paint84_linear_8_212" x1="314.618" y1="799.681" x2="435.004" y2="799.681" gradientUnits="userSpaceOnUse">
<stop stop-color="#CC8E12"/>
<stop offset="1" stop-color="#FEEB55"/>
</linearGradient>
<linearGradient id="paint85_linear_8_212" x1="312.534" y1="799.64" x2="437.088" y2="799.64" gradientUnits="userSpaceOnUse">
<stop stop-color="#CC8E12"/>
<stop offset="1" stop-color="#FEEB55"/>
</linearGradient>
<linearGradient id="paint86_linear_8_212" x1="651.05" y1="789.934" x2="732.984" y2="789.934" gradientUnits="userSpaceOnUse">
<stop stop-color="#CC8E12"/>
<stop offset="1" stop-color="#FEEB55"/>
</linearGradient>
<linearGradient id="paint87_linear_8_212" x1="698.27" y1="789.403" x2="779.03" y2="789.403" gradientUnits="userSpaceOnUse">
<stop stop-color="#CC8E12"/>
<stop offset="1" stop-color="#FEEB55"/>
</linearGradient>
</defs>
</svg>
