<svg width="508" height="513" viewBox="0 0 508 513" fill="none" xmlns="http://www.w3.org/2000/svg">
<g filter="url(#filter0_d_18_4)">
<rect x="4" width="500" height="504.972" fill="white"/>
</g>
<path d="M260.221 82.6915C260.221 82.6915 288.967 70.8954 299.535 39.0693" stroke="url(#paint0_linear_18_4)" stroke-width="3" stroke-miterlimit="10"/>
<path d="M260.221 111.627L272.062 97.3782" stroke="url(#paint1_linear_18_4)" stroke-width="3" stroke-miterlimit="10"/>
<path d="M242.606 111.393L231.327 97.3782" stroke="url(#paint2_linear_18_4)" stroke-width="3" stroke-miterlimit="10"/>
<path d="M242.607 83.5967C242.607 83.5967 212.499 67.0413 202.611 38.135" stroke="url(#paint3_linear_18_4)" stroke-width="3" stroke-miterlimit="10"/>
<path d="M222.771 104.064L219.485 89.4946C219.485 89.4946 205.512 98.2833 186.269 82.6915C167.026 67.0996 194.647 65.5229 194.647 65.5229C194.647 65.5229 195.15 57.3766 190.71 45.6973" stroke="url(#paint4_linear_18_4)" stroke-width="3" stroke-miterlimit="10"/>
<path d="M147.311 64.1797L157.169 80.2387C173.451 75.3626 169.988 72.4428 172.474 89.4946C174.931 106.517 157.169 115.014 157.169 115.014L162.053 128.299" stroke="url(#paint5_linear_18_4)" stroke-width="3" stroke-miterlimit="10"/>
<path d="M131.323 68.5596C131.323 68.5596 146.481 88.3268 136.356 123.277" stroke="url(#paint6_linear_18_4)" stroke-width="3" stroke-miterlimit="10"/>
<path d="M63.1738 135.949C63.1738 135.949 93.696 153.205 123.715 137.672" stroke="url(#paint7_linear_18_4)" stroke-width="3" stroke-miterlimit="10"/>
<path d="M154.771 148.855L151.811 126.43" stroke="url(#paint8_linear_18_4)" stroke-width="3" stroke-miterlimit="10"/>
<path d="M126.262 158.227L143.403 160.534" stroke="url(#paint9_linear_18_4)" stroke-width="3" stroke-miterlimit="10"/>
<path d="M125.521 168.418C125.521 168.418 112.288 151.278 104.886 166.374C97.4853 181.469 77.2952 175.162 77.2952 175.162C77.2952 175.162 87.6271 153.235 59.9766 149.818" stroke="url(#paint10_linear_18_4)" stroke-width="3" stroke-miterlimit="10"/>
<path d="M102.519 225.734L85.1412 223.34C85.1412 223.34 90.0852 205.324 79.7236 191.689C69.3621 178.053 64.9214 191.689 64.9214 191.689C64.9214 191.689 59.0005 200.944 42.2148 192.652" stroke="url(#paint11_linear_18_4)" stroke-width="3" stroke-miterlimit="10"/>
<path d="M109.802 245.472L95.207 232.712" stroke="url(#paint12_linear_18_4)" stroke-width="3" stroke-miterlimit="10"/>
<path d="M77.2658 259.458C77.2658 259.458 71.0489 289.444 34.665 303.109" stroke="url(#paint13_linear_18_4)" stroke-width="3" stroke-miterlimit="10"/>
<path d="M126.409 337.621L111.784 344.454C111.784 344.454 105.863 328.307 82.6831 329.095C59.5029 329.884 75.282 344.454 75.282 344.454C75.282 344.454 88.1007 350.323 59.9766 357.155" stroke="url(#paint14_linear_18_4)" stroke-width="3" stroke-miterlimit="10"/>
<path d="M124.188 368.279C124.188 368.279 98.4327 354.089 63.1738 368.279" stroke="url(#paint15_linear_18_4)" stroke-width="3" stroke-miterlimit="10"/>
<path d="M132.301 378.791C132.301 378.791 149.383 400.018 132.301 439.902" stroke="url(#paint16_linear_18_4)" stroke-width="3" stroke-miterlimit="10"/>
<path d="M127.12 348.629L149.827 346.556" stroke="url(#paint17_linear_18_4)" stroke-width="3" stroke-miterlimit="10"/>
<path d="M163.089 376.046L156.191 388.455C156.191 388.455 177.891 403.843 171.97 418.938C166.049 434.034 156.191 422.354 156.191 422.354C156.191 422.354 149.293 423.814 145.326 442.793" stroke="url(#paint18_linear_18_4)" stroke-width="3" stroke-miterlimit="10"/>
<path d="M153.675 376.543V350.293" stroke="url(#paint19_linear_18_4)" stroke-width="3" stroke-miterlimit="10"/>
<path d="M200.51 466.035C200.51 466.035 209.095 434.034 244.087 422.354" stroke="url(#paint20_linear_18_4)" stroke-width="3" stroke-miterlimit="10"/>
<path d="M222.979 399.726L222.269 414.092C222.269 414.092 191.687 411.172 184.286 426.267C176.885 441.363 194.144 438.443 194.144 438.443C194.144 438.443 206.963 442.326 190.207 459.845" stroke="url(#paint21_linear_18_4)" stroke-width="3" stroke-miterlimit="10"/>
<path d="M300.601 466.035C300.601 466.035 288.375 433.537 258.8 422.354" stroke="url(#paint22_linear_18_4)" stroke-width="3" stroke-miterlimit="10"/>
<path d="M242.281 388.455C242.281 388.455 238.255 407.609 231.031 405.974" stroke="url(#paint23_linear_18_4)" stroke-width="3" stroke-miterlimit="10"/>
<path d="M271.589 409.332C271.589 409.332 259.777 396.426 258.8 388.484" stroke="url(#paint24_linear_18_4)" stroke-width="3" stroke-miterlimit="10"/>
<path d="M281.478 399.726V414.559C281.478 414.559 307.145 409.683 314.546 421.858C321.947 434.034 323.427 436.457 305.161 437.917C295.303 442.793 311.585 459.32 311.585 459.32" stroke="url(#paint25_linear_18_4)" stroke-width="3" stroke-miterlimit="10"/>
<path d="M338.643 375.842L345.333 388.777C345.333 388.777 328.37 397.04 328.37 418.938C328.37 440.837 343.054 423.814 343.054 423.814C343.054 423.814 347.139 413.099 356.021 442.793" stroke="url(#paint26_linear_18_4)" stroke-width="3" stroke-miterlimit="10"/>
<path d="M343.054 356.483L347.613 375.433" stroke="url(#paint27_linear_18_4)" stroke-width="3" stroke-miterlimit="10"/>
<path d="M326.298 368.279L331.834 376.63C331.834 376.63 338.524 375.55 347.613 375.462C358.685 375.374 373.339 376.747 383.642 383.433" stroke="url(#paint28_linear_18_4)" stroke-width="3" stroke-miterlimit="10"/>
<path d="M378.935 368.279C378.935 368.279 395.839 352.629 441.311 368.279" stroke="url(#paint29_linear_18_4)" stroke-width="3" stroke-miterlimit="10"/>
<path d="M356.021 344.454C356.021 344.454 362.742 349.855 374.909 348.395" stroke="url(#paint30_linear_18_4)" stroke-width="3" stroke-miterlimit="10"/>
<path d="M376.744 338.789L389.77 344.454C389.77 344.454 398.888 323.81 424.082 330.38C437.433 331.84 424.999 341.563 424.999 341.563C424.999 341.563 416.059 352.746 452.916 352.746" stroke="url(#paint31_linear_18_4)" stroke-width="3" stroke-miterlimit="10"/>
<path d="M401.108 278.758L415.23 283.809C415.23 283.809 411.707 306.554 424.081 314.817C436.456 323.081 439.89 326.497 438.41 310.934C436.93 295.371 461.59 312.89 461.59 312.89" stroke="url(#paint32_linear_18_4)" stroke-width="3" stroke-miterlimit="10"/>
<path d="M424.97 259.458C424.97 259.458 433.821 288.043 467.926 301.649" stroke="url(#paint33_linear_18_4)" stroke-width="3" stroke-miterlimit="10"/>
<path d="M393.352 263.253C393.352 263.253 399.717 262.494 408.183 270.874" stroke="url(#paint34_linear_18_4)" stroke-width="3" stroke-miterlimit="10"/>
<path d="M394.003 244.596L408.213 232.712" stroke="url(#paint35_linear_18_4)" stroke-width="3" stroke-miterlimit="10"/>
<path d="M424.082 245.472C424.082 245.472 427.931 220.478 467.956 201.236" stroke="url(#paint36_linear_18_4)" stroke-width="3" stroke-miterlimit="10"/>
<path d="M400.043 223.339L416.207 220.828C416.207 220.828 409.783 205.791 419.167 193.645C428.552 181.469 435.953 184.097 435.953 184.097C435.953 184.097 440.098 186.345 438.529 196.068C436.96 205.791 461.117 192.652 461.117 192.652" stroke="url(#paint37_linear_18_4)" stroke-width="3" stroke-miterlimit="10"/>
<path d="M378.017 135.949C378.017 135.949 399.924 151.482 438.41 138.022" stroke="url(#paint38_linear_18_4)" stroke-width="3" stroke-miterlimit="10"/>
<path d="M374.938 165.936C374.938 165.936 393.529 152.738 394.003 163.454C394.506 174.17 443.353 185.09 426.568 162.607C419.166 153.731 442.347 148.855 442.347 148.855" stroke="url(#paint39_linear_18_4)" stroke-width="3" stroke-miterlimit="10"/>
<path d="M358.36 158.227H373.429" stroke="url(#paint40_linear_18_4)" stroke-width="3" stroke-miterlimit="10"/>
<path d="M346.252 146.373V129.642" stroke="url(#paint41_linear_18_4)" stroke-width="3" stroke-miterlimit="10"/>
<path d="M381.037 124.562C381.037 124.562 369.817 161.031 376.715 170.783C371.475 175.192 371.475 175.192 371.475 175.192" stroke="url(#paint42_linear_18_4)" stroke-width="3" stroke-miterlimit="10"/>
<path d="M340.063 129.029C340.063 129.029 354.954 114.313 342.136 110.401C329.317 106.517 325.853 78.7499 337.192 75.8301C343.616 88.0058 359.425 80.4726 353.978 57.114" stroke="url(#paint43_linear_18_4)" stroke-width="3" stroke-miterlimit="10"/>
<path d="M394.003 88.0349C394.003 88.0349 390.362 115.218 385.536 123.277" stroke="url(#paint44_linear_18_4)" stroke-width="3" stroke-miterlimit="10"/>
<path d="M373.429 126.43C373.429 126.43 355.045 120.386 367.864 65.5229" stroke="url(#paint45_linear_18_4)" stroke-width="3" stroke-miterlimit="10"/>
<path d="M327.719 132.767L331.33 127.452C331.33 127.452 347.82 134.518 385.507 123.277C395.276 120.357 406.466 116.24 419.137 110.43" stroke="url(#paint46_linear_18_4)" stroke-width="3" stroke-miterlimit="10"/>
<path d="M279.879 104.065V88.9984C279.879 88.9984 296.813 95.8016 309.631 85.5822C325.914 77.7863 317.032 69.0268 317.032 69.0268C317.032 69.0268 297.79 73.4066 312.592 47.6245" stroke="url(#paint47_linear_18_4)" stroke-width="3" stroke-miterlimit="10"/>
<path d="M319.46 38.106C319.46 38.106 323.693 80.093 356.88 53.6394" stroke="url(#paint48_linear_18_4)" stroke-width="3" stroke-miterlimit="10"/>
<path d="M34.8135 203.601C34.8135 203.601 68.9177 213.091 77.2662 245.472" stroke="url(#paint49_linear_18_4)" stroke-width="3" stroke-miterlimit="10"/>
<path d="M213.417 173.44H197.135V323.081H213.417V173.44Z" fill="url(#paint50_linear_18_4)"/>
<path d="M301.489 173.44H284.467V323.081H301.489V173.44Z" fill="url(#paint51_linear_18_4)"/>
<path d="M213.417 232.07C213.417 232.07 216.496 251.165 251.399 246.435C265.225 239.632 284.468 249.005 284.468 258.844" stroke="url(#paint52_linear_18_4)" stroke-miterlimit="10"/>
<path d="M219.515 115.014V105.554C219.515 105.554 242.044 100.21 265.727 36.4414" stroke="url(#paint53_linear_18_4)" stroke-width="3" stroke-miterlimit="10"/>
<path d="M284.32 115.014V106.517C284.32 106.517 262.265 99.714 236.124 36.4414" stroke="url(#paint54_linear_18_4)" stroke-width="3" stroke-miterlimit="10"/>
<path d="M450.252 147.716C450.252 147.716 431.068 181.849 469.524 184.097" stroke="url(#paint55_linear_18_4)" stroke-width="3" stroke-miterlimit="10"/>
<path d="M390.836 220.828H398.444C398.444 220.828 407.296 237.646 438.499 254.056C447.055 258.552 457.298 263.02 469.525 267.107" stroke="url(#paint56_linear_18_4)" stroke-width="3" stroke-miterlimit="10"/>
<path d="M389.771 283.809H397.941C397.941 283.809 400.635 277.881 408.214 270.903C414.52 265.093 424.2 258.523 438.499 254.056L472.367 235.135" stroke="url(#paint57_linear_18_4)" stroke-width="3" stroke-miterlimit="10"/>
<path d="M469.524 321.095C469.524 321.095 435.065 327.577 455.255 356.483" stroke="url(#paint58_linear_18_4)" stroke-width="3" stroke-miterlimit="10"/>
<path d="M371.505 325.008L378.018 331.84C378.018 331.84 371.298 355.695 383.643 380.513L417.184 394.149" stroke="url(#paint59_linear_18_4)" stroke-width="3" stroke-miterlimit="10"/>
<path d="M394.98 418.938L383.642 380.514" stroke="url(#paint60_linear_18_4)" stroke-width="3" stroke-miterlimit="10"/>
<path d="M320.377 468.283C320.377 468.283 320.407 430.647 357.205 452.049" stroke="url(#paint61_linear_18_4)" stroke-width="3" stroke-miterlimit="10"/>
<path d="M281.477 385.769V399.726C281.477 399.726 242.518 433.537 236.094 468.108" stroke="url(#paint62_linear_18_4)" stroke-width="3" stroke-miterlimit="10"/>
<path d="M218.361 384.864V397.536C222.743 399.084 226.976 402.062 231.032 405.974C251.163 425.42 266.232 467.612 266.232 467.612" stroke="url(#paint63_linear_18_4)" stroke-width="3" stroke-miterlimit="10"/>
<path d="M146.333 452.516C146.333 452.516 169.661 428.953 185.115 466.035" stroke="url(#paint64_linear_18_4)" stroke-width="3" stroke-miterlimit="10"/>
<path d="M177.536 368.279L171.497 375.842C171.497 375.842 113.265 375.637 85.1406 393.156" stroke="url(#paint65_linear_18_4)" stroke-width="3" stroke-miterlimit="10"/>
<path d="M132.301 325.008L124.101 331.344C136.446 352.279 107.818 416.515 107.818 416.515" stroke="url(#paint66_linear_18_4)" stroke-width="3" stroke-miterlimit="10"/>
<path d="M48.6084 358.294C48.6084 358.294 75.1636 327.84 32.0596 321.796" stroke="url(#paint67_linear_18_4)" stroke-width="3" stroke-miterlimit="10"/>
<path d="M41.7109 313.357C41.7109 313.357 66.3714 296.802 66.8747 313.357C67.378 329.913 87.5978 314.321 88.101 293.882C83.6604 278.758 97.9593 278.758 97.9593 278.758L104.857 281.648" stroke="url(#paint68_linear_18_4)" stroke-width="3" stroke-miterlimit="10"/>
<path d="M113.501 281.648H104.857C104.857 281.648 67.8515 245.209 32.3262 239.369" stroke="url(#paint69_linear_18_4)" stroke-width="3" stroke-miterlimit="10"/>
<path d="M31.8525 268.1C31.8525 268.1 103.406 235.865 104.887 220.828H112.998" stroke="url(#paint70_linear_18_4)" stroke-width="3" stroke-miterlimit="10"/>
<path d="M33.0967 183.864C33.0967 183.864 67.3786 186.345 51.0962 148.884" stroke="url(#paint71_linear_18_4)" stroke-width="3" stroke-miterlimit="10"/>
<path d="M107.818 89.2026C107.818 89.2026 133.633 146.636 124.19 173.148L131.324 176.389" stroke="url(#paint72_linear_18_4)" stroke-width="3" stroke-miterlimit="10"/>
<path d="M85.1406 111.89C85.1406 111.89 164.392 130.226 169.01 129.058L175.582 133.117" stroke="url(#paint73_linear_18_4)" stroke-width="3" stroke-miterlimit="10"/>
<path d="M147.843 52.442C147.843 52.442 174.25 72.8515 182.243 39.0984" stroke="url(#paint74_linear_18_4)" stroke-width="3" stroke-miterlimit="10"/>
<path d="M251.902 388.776C330.382 388.776 394.003 326.682 394.003 250.085C394.003 173.488 330.382 111.393 251.902 111.393C173.422 111.393 109.801 173.488 109.801 250.085C109.801 326.682 173.422 388.776 251.902 388.776Z" stroke="url(#paint75_linear_18_4)" stroke-width="3" stroke-miterlimit="10"/>
<path d="M236.123 36.4416L249.948 19.8862L265.727 36.4416C265.727 36.4416 299.269 31.5655 312.591 47.6246C322.953 24.266 346.636 33.7554 346.636 33.7554C346.636 33.7554 359.455 44.7047 356.998 64.1799C370.823 59.3038 394.003 88.0349 394.003 88.0349H419.167V110.43C419.167 110.43 443.354 128.445 442.347 148.884C463.574 143.044 473.935 161.06 473.935 161.06C473.935 161.06 479.856 178.579 461.116 192.681C478.376 206.317 471.478 241.822 471.478 241.822L488.264 252.041L471.981 266.641C471.981 266.641 476.925 297.299 461.62 312.861C481.839 328.424 471.478 347.403 471.478 347.403C471.478 347.403 462.597 359.082 442.377 357.126C446.314 376.601 417.213 394.12 417.213 394.12L419.67 418.938H395.01C395.01 418.938 379.231 440.837 356.021 442.793C362.179 464.196 343.202 471.028 343.202 471.028C343.202 471.028 320.999 476.371 311.614 459.349C303.71 471.816 266.231 467.612 266.231 467.612L251.932 488.547L236.152 468.108C236.152 468.108 203.588 473.452 190.266 459.845C178.927 478.328 158.678 471.028 158.678 471.028C158.678 471.028 146.333 469.568 145.356 442.793C126.616 444.75 107.847 416.515 107.847 416.515L83.1865 418.938L85.17 393.156C85.17 393.156 64.4469 382.937 60.0063 357.155C36.826 363.958 29.425 342.06 29.425 342.06C29.425 342.06 23.5041 322.584 41.77 313.358C28.5072 301.182 29.9282 275.896 31.9117 268.1C21.1949 263.575 14.6523 254.231 14.6523 254.231L32.415 239.399C32.415 239.399 26.9974 205.324 42.2733 192.681C24.5106 181.966 29.9282 162.023 29.9282 162.023C29.9282 162.023 36.3524 146.928 60.0359 149.848C54.115 134.285 85.1996 111.89 85.1996 111.89L82.7425 87.0714L107.906 89.4948C107.906 89.4948 123.212 65.6398 147.369 64.1799C144.408 48.6172 157.73 34.9817 157.73 34.9817C157.73 34.9817 173.036 28.6457 190.799 45.6975C205.038 30.1348 236.123 36.4416 236.123 36.4416Z" stroke="url(#paint76_linear_18_4)" stroke-width="3" stroke-miterlimit="10"/>
<defs>
<filter id="filter0_d_18_4" x="0" y="0" width="508" height="512.972" filterUnits="userSpaceOnUse" color-interpolation-filters="sRGB">
<feFlood flood-opacity="0" result="BackgroundImageFix"/>
<feColorMatrix in="SourceAlpha" type="matrix" values="0 0 0 0 0 0 0 0 0 0 0 0 0 0 0 0 0 0 127 0" result="hardAlpha"/>
<feOffset dy="4"/>
<feGaussianBlur stdDeviation="2"/>
<feComposite in2="hardAlpha" operator="out"/>
<feColorMatrix type="matrix" values="0 0 0 0 0 0 0 0 0 0 0 0 0 0 0 0 0 0 0.25 0"/>
<feBlend mode="normal" in2="BackgroundImageFix" result="effect1_dropShadow_18_4"/>
<feBlend mode="normal" in="SourceGraphic" in2="effect1_dropShadow_18_4" result="shape"/>
</filter>
<linearGradient id="paint0_linear_18_4" x1="258.506" y1="62.2305" x2="303.754" y2="62.2305" gradientUnits="userSpaceOnUse">
<stop stop-color="#CC8E12"/>
<stop offset="1" stop-color="#FEEB55"/>
</linearGradient>
<linearGradient id="paint1_linear_18_4" x1="256.779" y1="104.506" x2="275.506" y2="104.506" gradientUnits="userSpaceOnUse">
<stop stop-color="#CC8E12"/>
<stop offset="1" stop-color="#FEEB55"/>
</linearGradient>
<linearGradient id="paint2_linear_18_4" x1="227.853" y1="104.385" x2="246.09" y2="104.385" gradientUnits="userSpaceOnUse">
<stop stop-color="#CC8E12"/>
<stop offset="1" stop-color="#FEEB55"/>
</linearGradient>
<linearGradient id="paint3_linear_18_4" x1="198.397" y1="62.065" x2="244.774" y2="62.065" gradientUnits="userSpaceOnUse">
<stop stop-color="#CC8E12"/>
<stop offset="1" stop-color="#FEEB55"/>
</linearGradient>
<linearGradient id="paint4_linear_18_4" x1="175.025" y1="74.5915" x2="227.118" y2="74.5915" gradientUnits="userSpaceOnUse">
<stop stop-color="#CC8E12"/>
<stop offset="1" stop-color="#FEEB55"/>
</linearGradient>
<linearGradient id="paint5_linear_18_4" x1="143.503" y1="95.8645" x2="177.14" y2="95.8645" gradientUnits="userSpaceOnUse">
<stop stop-color="#CC8E12"/>
<stop offset="1" stop-color="#FEEB55"/>
</linearGradient>
<linearGradient id="paint6_linear_18_4" x1="127.788" y1="95.203" x2="144.297" y2="95.203" gradientUnits="userSpaceOnUse">
<stop stop-color="#CC8E12"/>
<stop offset="1" stop-color="#FEEB55"/>
</linearGradient>
<linearGradient id="paint7_linear_18_4" x1="60.9582" y1="140.334" x2="125.763" y2="140.334" gradientUnits="userSpaceOnUse">
<stop stop-color="#CC8E12"/>
<stop offset="1" stop-color="#FEEB55"/>
</linearGradient>
<linearGradient id="paint8_linear_18_4" x1="147.418" y1="137.653" x2="159.169" y2="137.653" gradientUnits="userSpaceOnUse">
<stop stop-color="#CC8E12"/>
<stop offset="1" stop-color="#FEEB55"/>
</linearGradient>
<linearGradient id="paint9_linear_18_4" x1="125.66" y1="159.376" x2="144.013" y2="159.376" gradientUnits="userSpaceOnUse">
<stop stop-color="#CC8E12"/>
<stop offset="1" stop-color="#FEEB55"/>
</linearGradient>
<linearGradient id="paint10_linear_18_4" x1="59.4159" y1="163.173" x2="129.043" y2="163.173" gradientUnits="userSpaceOnUse">
<stop stop-color="#CC8E12"/>
<stop offset="1" stop-color="#FEEB55"/>
</linearGradient>
<linearGradient id="paint11_linear_18_4" x1="40.2189" y1="205.663" x2="103.123" y2="205.663" gradientUnits="userSpaceOnUse">
<stop stop-color="#CC8E12"/>
<stop offset="1" stop-color="#FEEB55"/>
</linearGradient>
<linearGradient id="paint12_linear_18_4" x1="92.2703" y1="239.093" x2="112.746" y2="239.093" gradientUnits="userSpaceOnUse">
<stop stop-color="#CC8E12"/>
<stop offset="1" stop-color="#FEEB55"/>
</linearGradient>
<linearGradient id="paint13_linear_18_4" x1="33.0963" y1="282.896" x2="81.623" y2="282.896" gradientUnits="userSpaceOnUse">
<stop stop-color="#CC8E12"/>
<stop offset="1" stop-color="#FEEB55"/>
</linearGradient>
<linearGradient id="paint14_linear_18_4" x1="58.9075" y1="343.041" x2="128.299" y2="343.041" gradientUnits="userSpaceOnUse">
<stop stop-color="#CC8E12"/>
<stop offset="1" stop-color="#FEEB55"/>
</linearGradient>
<linearGradient id="paint15_linear_18_4" x1="61.4926" y1="364.961" x2="126.36" y2="364.961" gradientUnits="userSpaceOnUse">
<stop stop-color="#CC8E12"/>
<stop offset="1" stop-color="#FEEB55"/>
</linearGradient>
<linearGradient id="paint16_linear_18_4" x1="128.217" y1="408.834" x2="144.34" y2="408.834" gradientUnits="userSpaceOnUse">
<stop stop-color="#CC8E12"/>
<stop offset="1" stop-color="#FEEB55"/>
</linearGradient>
<linearGradient id="paint17_linear_18_4" x1="126.706" y1="347.59" x2="150.23" y2="347.59" gradientUnits="userSpaceOnUse">
<stop stop-color="#CC8E12"/>
<stop offset="1" stop-color="#FEEB55"/>
</linearGradient>
<linearGradient id="paint18_linear_18_4" x1="140.976" y1="408.806" x2="177.434" y2="408.806" gradientUnits="userSpaceOnUse">
<stop stop-color="#CC8E12"/>
<stop offset="1" stop-color="#FEEB55"/>
</linearGradient>
<linearGradient id="paint19_linear_18_4" x1="-nan" y1="-nan" x2="-nan" y2="-nan" gradientUnits="userSpaceOnUse">
<stop stop-color="#CC8E12"/>
<stop offset="1" stop-color="#FEEB55"/>
</linearGradient>
<linearGradient id="paint20_linear_18_4" x1="196.209" y1="442.688" x2="245.493" y2="442.688" gradientUnits="userSpaceOnUse">
<stop stop-color="#CC8E12"/>
<stop offset="1" stop-color="#FEEB55"/>
</linearGradient>
<linearGradient id="paint21_linear_18_4" x1="178.021" y1="431.174" x2="227.425" y2="431.174" gradientUnits="userSpaceOnUse">
<stop stop-color="#CC8E12"/>
<stop offset="1" stop-color="#FEEB55"/>
</linearGradient>
<linearGradient id="paint22_linear_18_4" x1="257.209" y1="442.918" x2="304.773" y2="442.918" gradientUnits="userSpaceOnUse">
<stop stop-color="#CC8E12"/>
<stop offset="1" stop-color="#FEEB55"/>
</linearGradient>
<linearGradient id="paint23_linear_18_4" x1="230.03" y1="399.013" x2="246.629" y2="399.013" gradientUnits="userSpaceOnUse">
<stop stop-color="#CC8E12"/>
<stop offset="1" stop-color="#FEEB55"/>
</linearGradient>
<linearGradient id="paint24_linear_18_4" x1="254.391" y1="400.094" x2="274.88" y2="400.094" gradientUnits="userSpaceOnUse">
<stop stop-color="#CC8E12"/>
<stop offset="1" stop-color="#FEEB55"/>
</linearGradient>
<linearGradient id="paint25_linear_18_4" x1="277.045" y1="431.058" x2="324.175" y2="431.058" gradientUnits="userSpaceOnUse">
<stop stop-color="#CC8E12"/>
<stop offset="1" stop-color="#FEEB55"/>
</linearGradient>
<linearGradient id="paint26_linear_18_4" x1="323.939" y1="408.944" x2="360.27" y2="408.944" gradientUnits="userSpaceOnUse">
<stop stop-color="#CC8E12"/>
<stop offset="1" stop-color="#FEEB55"/>
</linearGradient>
<linearGradient id="paint27_linear_18_4" x1="338.729" y1="365.962" x2="351.941" y2="365.962" gradientUnits="userSpaceOnUse">
<stop stop-color="#CC8E12"/>
<stop offset="1" stop-color="#FEEB55"/>
</linearGradient>
<linearGradient id="paint28_linear_18_4" x1="322.58" y1="376.477" x2="386.082" y2="376.477" gradientUnits="userSpaceOnUse">
<stop stop-color="#CC8E12"/>
<stop offset="1" stop-color="#FEEB55"/>
</linearGradient>
<linearGradient id="paint29_linear_18_4" x1="375.912" y1="364.676" x2="442.777" y2="364.676" gradientUnits="userSpaceOnUse">
<stop stop-color="#CC8E12"/>
<stop offset="1" stop-color="#FEEB55"/>
</linearGradient>
<linearGradient id="paint30_linear_18_4" x1="353.232" y1="347.034" x2="375.467" y2="347.034" gradientUnits="userSpaceOnUse">
<stop stop-color="#CC8E12"/>
<stop offset="1" stop-color="#FEEB55"/>
</linearGradient>
<linearGradient id="paint31_linear_18_4" x1="374.963" y1="340.925" x2="452.886" y2="340.925" gradientUnits="userSpaceOnUse">
<stop stop-color="#CC8E12"/>
<stop offset="1" stop-color="#FEEB55"/>
</linearGradient>
<linearGradient id="paint32_linear_18_4" x1="399.596" y1="300.41" x2="464.195" y2="300.41" gradientUnits="userSpaceOnUse">
<stop stop-color="#CC8E12"/>
<stop offset="1" stop-color="#FEEB55"/>
</linearGradient>
<linearGradient id="paint33_linear_18_4" x1="420.734" y1="281.957" x2="469.612" y2="281.957" gradientUnits="userSpaceOnUse">
<stop stop-color="#CC8E12"/>
<stop offset="1" stop-color="#FEEB55"/>
</linearGradient>
<linearGradient id="paint34_linear_18_4" x1="392.827" y1="266.419" x2="411.353" y2="266.419" gradientUnits="userSpaceOnUse">
<stop stop-color="#CC8E12"/>
<stop offset="1" stop-color="#FEEB55"/>
</linearGradient>
<linearGradient id="paint35_linear_18_4" x1="391.133" y1="238.659" x2="411.083" y2="238.659" gradientUnits="userSpaceOnUse">
<stop stop-color="#CC8E12"/>
<stop offset="1" stop-color="#FEEB55"/>
</linearGradient>
<linearGradient id="paint36_linear_18_4" x1="419.679" y1="221.697" x2="469.892" y2="221.697" gradientUnits="userSpaceOnUse">
<stop stop-color="#CC8E12"/>
<stop offset="1" stop-color="#FEEB55"/>
</linearGradient>
<linearGradient id="paint37_linear_18_4" x1="399.361" y1="203.57" x2="463.25" y2="203.57" gradientUnits="userSpaceOnUse">
<stop stop-color="#CC8E12"/>
<stop offset="1" stop-color="#FEEB55"/>
</linearGradient>
<linearGradient id="paint38_linear_18_4" x1="375.424" y1="140.133" x2="439.895" y2="140.133" gradientUnits="userSpaceOnUse">
<stop stop-color="#CC8E12"/>
<stop offset="1" stop-color="#FEEB55"/>
</linearGradient>
<linearGradient id="paint39_linear_18_4" x1="372.336" y1="162.362" x2="443.281" y2="162.362" gradientUnits="userSpaceOnUse">
<stop stop-color="#CC8E12"/>
<stop offset="1" stop-color="#FEEB55"/>
</linearGradient>
<linearGradient id="paint40_linear_18_4" x1="-nan" y1="-nan" x2="-nan" y2="-nan" gradientUnits="userSpaceOnUse">
<stop stop-color="#CC8E12"/>
<stop offset="1" stop-color="#FEEB55"/>
</linearGradient>
<linearGradient id="paint41_linear_18_4" x1="-nan" y1="-nan" x2="-nan" y2="-nan" gradientUnits="userSpaceOnUse">
<stop stop-color="#CC8E12"/>
<stop offset="1" stop-color="#FEEB55"/>
</linearGradient>
<linearGradient id="paint42_linear_18_4" x1="368.613" y1="150.891" x2="385.294" y2="150.891" gradientUnits="userSpaceOnUse">
<stop stop-color="#CC8E12"/>
<stop offset="1" stop-color="#FEEB55"/>
</linearGradient>
<linearGradient id="paint43_linear_18_4" x1="325.894" y1="94.1461" x2="359.559" y2="94.1461" gradientUnits="userSpaceOnUse">
<stop stop-color="#CC8E12"/>
<stop offset="1" stop-color="#FEEB55"/>
</linearGradient>
<linearGradient id="paint44_linear_18_4" x1="381.707" y1="106.486" x2="398.406" y2="106.486" gradientUnits="userSpaceOnUse">
<stop stop-color="#CC8E12"/>
<stop offset="1" stop-color="#FEEB55"/>
</linearGradient>
<linearGradient id="paint45_linear_18_4" x1="358.892" y1="97.5709" x2="374.847" y2="97.5709" gradientUnits="userSpaceOnUse">
<stop stop-color="#CC8E12"/>
<stop offset="1" stop-color="#FEEB55"/>
</linearGradient>
<linearGradient id="paint46_linear_18_4" x1="324.029" y1="120.834" x2="421.036" y2="120.834" gradientUnits="userSpaceOnUse">
<stop stop-color="#CC8E12"/>
<stop offset="1" stop-color="#FEEB55"/>
</linearGradient>
<linearGradient id="paint47_linear_18_4" x1="275.434" y1="74.7812" x2="323.891" y2="74.7812" gradientUnits="userSpaceOnUse">
<stop stop-color="#CC8E12"/>
<stop offset="1" stop-color="#FEEB55"/>
</linearGradient>
<linearGradient id="paint48_linear_18_4" x1="315.031" y1="52.237" x2="359.665" y2="52.237" gradientUnits="userSpaceOnUse">
<stop stop-color="#CC8E12"/>
<stop offset="1" stop-color="#FEEB55"/>
</linearGradient>
<linearGradient id="paint49_linear_18_4" x1="33.608" y1="222.962" x2="81.576" y2="222.962" gradientUnits="userSpaceOnUse">
<stop stop-color="#CC8E12"/>
<stop offset="1" stop-color="#FEEB55"/>
</linearGradient>
<linearGradient id="paint50_linear_18_4" x1="197.135" y1="248.26" x2="213.417" y2="248.26" gradientUnits="userSpaceOnUse">
<stop stop-color="#CC8E12"/>
<stop offset="1" stop-color="#FEEB55"/>
</linearGradient>
<linearGradient id="paint51_linear_18_4" x1="284.467" y1="248.26" x2="301.489" y2="248.26" gradientUnits="userSpaceOnUse">
<stop stop-color="#CC8E12"/>
<stop offset="1" stop-color="#FEEB55"/>
</linearGradient>
<linearGradient id="paint52_linear_18_4" x1="211.955" y1="245.347" x2="285.948" y2="245.347" gradientUnits="userSpaceOnUse">
<stop stop-color="#CC8E12"/>
<stop offset="1" stop-color="#FEEB55"/>
</linearGradient>
<linearGradient id="paint53_linear_18_4" x1="215.065" y1="74.9863" x2="269.887" y2="74.9863" gradientUnits="userSpaceOnUse">
<stop stop-color="#CC8E12"/>
<stop offset="1" stop-color="#FEEB55"/>
</linearGradient>
<linearGradient id="paint54_linear_18_4" x1="232.002" y1="74.913" x2="288.752" y2="74.913" gradientUnits="userSpaceOnUse">
<stop stop-color="#CC8E12"/>
<stop offset="1" stop-color="#FEEB55"/>
</linearGradient>
<linearGradient id="paint55_linear_18_4" x1="441.032" y1="167.029" x2="469.793" y2="167.029" gradientUnits="userSpaceOnUse">
<stop stop-color="#CC8E12"/>
<stop offset="1" stop-color="#FEEB55"/>
</linearGradient>
<linearGradient id="paint56_linear_18_4" x1="390.826" y1="243.856" x2="470.958" y2="243.856" gradientUnits="userSpaceOnUse">
<stop stop-color="#CC8E12"/>
<stop offset="1" stop-color="#FEEB55"/>
</linearGradient>
<linearGradient id="paint57_linear_18_4" x1="389.766" y1="259.75" x2="474.558" y2="259.75" gradientUnits="userSpaceOnUse">
<stop stop-color="#CC8E12"/>
<stop offset="1" stop-color="#FEEB55"/>
</linearGradient>
<linearGradient id="paint58_linear_18_4" x1="444.473" y1="337.886" x2="470.363" y2="337.886" gradientUnits="userSpaceOnUse">
<stop stop-color="#CC8E12"/>
<stop offset="1" stop-color="#FEEB55"/>
</linearGradient>
<linearGradient id="paint59_linear_18_4" x1="368.263" y1="360.094" x2="418.885" y2="360.094" gradientUnits="userSpaceOnUse">
<stop stop-color="#CC8E12"/>
<stop offset="1" stop-color="#FEEB55"/>
</linearGradient>
<linearGradient id="paint60_linear_18_4" x1="379.378" y1="399.726" x2="399.253" y2="399.726" gradientUnits="userSpaceOnUse">
<stop stop-color="#CC8E12"/>
<stop offset="1" stop-color="#FEEB55"/>
</linearGradient>
<linearGradient id="paint61_linear_18_4" x1="315.934" y1="454.688" x2="359.464" y2="454.688" gradientUnits="userSpaceOnUse">
<stop stop-color="#CC8E12"/>
<stop offset="1" stop-color="#FEEB55"/>
</linearGradient>
<linearGradient id="paint62_linear_18_4" x1="231.745" y1="427.323" x2="285.927" y2="427.323" gradientUnits="userSpaceOnUse">
<stop stop-color="#CC8E12"/>
<stop offset="1" stop-color="#FEEB55"/>
</linearGradient>
<linearGradient id="paint63_linear_18_4" x1="213.911" y1="426.97" x2="270.4" y2="426.97" gradientUnits="userSpaceOnUse">
<stop stop-color="#CC8E12"/>
<stop offset="1" stop-color="#FEEB55"/>
</linearGradient>
<linearGradient id="paint64_linear_18_4" x1="143.159" y1="454.24" x2="189.235" y2="454.24" gradientUnits="userSpaceOnUse">
<stop stop-color="#CC8E12"/>
<stop offset="1" stop-color="#FEEB55"/>
</linearGradient>
<linearGradient id="paint65_linear_18_4" x1="82.7595" y1="381.211" x2="181.015" y2="381.211" gradientUnits="userSpaceOnUse">
<stop stop-color="#CC8E12"/>
<stop offset="1" stop-color="#FEEB55"/>
</linearGradient>
<linearGradient id="paint66_linear_18_4" x1="103.763" y1="369.921" x2="135.049" y2="369.921" gradientUnits="userSpaceOnUse">
<stop stop-color="#CC8E12"/>
<stop offset="1" stop-color="#FEEB55"/>
</linearGradient>
<linearGradient id="paint67_linear_18_4" x1="31.4172" y1="339.306" x2="61.1349" y2="339.306" gradientUnits="userSpaceOnUse">
<stop stop-color="#CC8E12"/>
<stop offset="1" stop-color="#FEEB55"/>
</linearGradient>
<linearGradient id="paint68_linear_18_4" x1="39.2138" y1="299.53" x2="106.607" y2="299.53" gradientUnits="userSpaceOnUse">
<stop stop-color="#CC8E12"/>
<stop offset="1" stop-color="#FEEB55"/>
</linearGradient>
<linearGradient id="paint69_linear_18_4" x1="31.6059" y1="260.547" x2="113.514" y2="260.547" gradientUnits="userSpaceOnUse">
<stop stop-color="#CC8E12"/>
<stop offset="1" stop-color="#FEEB55"/>
</linearGradient>
<linearGradient id="paint70_linear_18_4" x1="29.9972" y1="244.261" x2="112.976" y2="244.261" gradientUnits="userSpaceOnUse">
<stop stop-color="#CC8E12"/>
<stop offset="1" stop-color="#FEEB55"/>
</linearGradient>
<linearGradient id="paint71_linear_18_4" x1="32.7752" y1="167.705" x2="59.9153" y2="167.705" gradientUnits="userSpaceOnUse">
<stop stop-color="#CC8E12"/>
<stop offset="1" stop-color="#FEEB55"/>
</linearGradient>
<linearGradient id="paint72_linear_18_4" x1="103.769" y1="133.882" x2="133.183" y2="133.882" gradientUnits="userSpaceOnUse">
<stop stop-color="#CC8E12"/>
<stop offset="1" stop-color="#FEEB55"/>
</linearGradient>
<linearGradient id="paint73_linear_18_4" x1="84.116" y1="122.208" x2="177.937" y2="122.208" gradientUnits="userSpaceOnUse">
<stop stop-color="#CC8E12"/>
<stop offset="1" stop-color="#FEEB55"/>
</linearGradient>
<linearGradient id="paint74_linear_18_4" x1="145.103" y1="50.5117" x2="186.566" y2="50.5117" gradientUnits="userSpaceOnUse">
<stop stop-color="#CC8E12"/>
<stop offset="1" stop-color="#FEEB55"/>
</linearGradient>
<linearGradient id="paint75_linear_18_4" x1="105.36" y1="250.085" x2="398.444" y2="250.085" gradientUnits="userSpaceOnUse">
<stop stop-color="#CC8E12"/>
<stop offset="1" stop-color="#FEEB55"/>
</linearGradient>
<linearGradient id="paint76_linear_18_4" x1="8.63022" y1="254.666" x2="495.593" y2="254.666" gradientUnits="userSpaceOnUse">
<stop stop-color="#CC8E12"/>
<stop offset="1" stop-color="#FEEB55"/>
</linearGradient>
</defs>
</svg>
